<svg xmlns="http://www.w3.org/2000/svg" width="359" height="395" fill="none"><path stroke="#000" d="M169 163.5c46.644 0 88.858 3.971 119.398 10.387 15.275 3.208 27.602 7.023 36.099 11.243 4.249 2.11 7.514 4.309 9.711 6.564 2.195 2.254 3.292 4.528 3.292 6.806 0 2.278-1.097 4.552-3.292 6.806-2.197 2.255-5.462 4.454-9.711 6.564-8.497 4.22-20.824 8.035-36.099 11.243C257.858 229.529 215.644 233.5 169 233.5c-46.644 0-88.858-3.971-119.398-10.387-15.274-3.208-27.602-7.023-36.1-11.243-4.248-2.11-7.513-4.309-9.71-6.564C1.597 203.052.5 200.778.5 198.5c0-2.278 1.097-4.552 3.292-6.806 2.197-2.255 5.462-4.454 9.71-6.564 8.498-4.22 20.825-8.035 36.1-11.243C80.142 167.471 122.356 163.5 169 163.5Z"/><path stroke="#000" d="M169 188.5c46.644 0 88.858 3.971 119.398 10.387 15.275 3.208 27.602 7.023 36.099 11.243 4.249 2.11 7.514 4.309 9.711 6.564 2.195 2.254 3.292 4.528 3.292 6.806 0 2.278-1.097 4.552-3.292 6.806-2.197 2.255-5.462 4.454-9.711 6.564-8.497 4.22-20.824 8.035-36.099 11.243C257.858 254.529 215.644 258.5 169 258.5c-46.644 0-88.858-3.971-119.398-10.387-15.274-3.208-27.602-7.023-36.1-11.243-4.248-2.11-7.513-4.309-9.71-6.564C1.597 228.052.5 225.778.5 223.5c0-2.278 1.097-4.552 3.292-6.806 2.197-2.255 5.462-4.454 9.71-6.564 8.498-4.22 20.825-8.035 36.1-11.243C80.142 192.471 122.356 188.5 169 188.5Z"/><path stroke="#000" d="M169 213.5c46.644 0 88.858 3.971 119.398 10.387 15.275 3.208 27.602 7.023 36.099 11.243 4.249 2.11 7.514 4.309 9.711 6.564 2.195 2.254 3.292 4.528 3.292 6.806 0 2.278-1.097 4.552-3.292 6.806-2.197 2.255-5.462 4.454-9.711 6.564-8.497 4.22-20.824 8.035-36.099 11.243C257.858 279.529 215.644 283.5 169 283.5c-46.644 0-88.858-3.971-119.398-10.387-15.274-3.208-27.602-7.023-36.1-11.243-4.248-2.11-7.513-4.309-9.71-6.564C1.597 253.052.5 250.778.5 248.5c0-2.278 1.097-4.552 3.292-6.806 2.197-2.255 5.462-4.454 9.71-6.564 8.498-4.22 20.825-8.035 36.1-11.243C80.142 217.471 122.356 213.5 169 213.5ZM252.343 66.629l.168.905.668-.634 47.133-44.724-27.971 58.647-.397.831.913-.12 64.42-8.48-57.1 31.007-.81.439.81.439 57.1 31.005-64.42-8.478-.913-.12.397.831 27.971 58.646-47.133-44.723-.668-.634-.168.905-11.843 63.888-11.843-63.888-.168-.905-.668.634-47.133 44.723 27.971-58.646.397-.831-.913.12-64.421 8.478 57.101-31.005.81-.439-.81-.439-57.101-31.006 64.421 8.48.913.12-.397-.832-27.971-58.647L227.821 66.9l.668.634.168-.905L240.5 2.74l11.843 63.889Z"/><path fill="#D9D9D9" d="m277 177 17.789 45.06 46.321-14.186-24.138 42.003 39.972 27.37-47.889 7.316 3.523 48.316L277 300l-35.578 32.879 3.523-48.316-47.889-7.316 39.972-27.37-24.138-42.003 46.321 14.186L277 177Z"/><path fill="#B9FF66" d="M112.194 306.102 135.134 264l23.124 42.102 42.011 23.032-42.011 23.032-23.124 42.103-22.94-42.103L70 329.134l42.194-23.032Z"/><circle cx="152.5" cy="186.5" r="62" fill="#000" stroke="#000"/><ellipse cx="132" cy="173" fill="#fff" rx="10" ry="20"/><ellipse cx="173" cy="173" fill="#fff" rx="10" ry="20"/></svg>
